<svg height="19" viewBox="0 0 110 19" width="110" xmlns="http://www.w3.org/2000/svg"><path d="m.55 17.256c0-.144.023-.312.12-.504l6.814-14.904c.24-.528.6-.84 1.2-.84h.096c.576 0 .96.312 1.176.84l6.816 14.88c.072.168.12.336.12.48a.912.912 0 0 1 -.912.912c-.456 0-.768-.312-.936-.696l-1.752-3.864h-9.215l-1.752 3.912c-.168.408-.48.648-.912.648a.86.86 0 0 1 -.864-.864zm4.271-5.424h7.728l-3.864-8.592zm31.314 5.328c0 .528.432.96.96.96s.96-.432.96-.96v-14.208h4.872c.48 0 .888-.384.888-.864a.902.902 0 0 0 -.888-.888h-11.664a.902.902 0 0 0 -.888.888c0 .48.408.864.888.864h4.872zm31.001 1.128c-5.112 0-8.544-4.008-8.544-8.64v-.048c0-4.632 3.48-8.688 8.592-8.688s8.544 4.008 8.544 8.64v.048c0 4.632-3.48 8.688-8.592 8.688zm.048-1.752c3.84 0 6.576-3.072 6.576-6.888v-.048c0-3.816-2.784-6.936-6.624-6.936s-6.576 3.072-6.576 6.888v.048c0 3.816 2.784 6.936 6.624 6.936zm25.793.648c0 .528.408.936.912.936a.922.922 0 0 0 .936-.936v-12.528l5.352 7.872c.216.312.48.48.816.48s.576-.168.792-.48l5.376-7.896v12.528c0 .504.432.96.96.96.504 0 .936-.432.936-.96v-15.096a.953.953 0 0 0 -.936-.936h-.216c-.384 0-.696.192-.888.504l-6 9.024-6-9.024c-.192-.288-.48-.504-.888-.504h-.216a.953.953 0 0 0 -.936.936z" fill="#eed9b7" fill-rule="evenodd"/></svg>